<svg xmlns="http://www.w3.org/2000/svg" xmlns:xlink="http://www.w3.org/1999/xlink" version="1.0" x="0px" y="0px" viewBox="0 0 100 125" enable-background="new 0 0 100 100" xml:space="preserve"><polygon points="56.0299034,20.0464993 56.0299034,17.6301346 19.4093342,17.6301346 19.4093342,20.0464993 19.4093342,22.4627953   56.0299034,22.4627953 "/><path d="M94.8119354,86.8858643c-0.2171097-12.1765518-7.3226089-22.8820419-18.1772079-27.8529015  c2.8052216-3.1682053,4.4012146-7.2829819,4.4012146-11.6050949c0-7.2895889-4.4805222-13.5479698-10.8290634-16.179348v-26.18326  H5.2341776v54.7700157h43.5806618c-9.9427948,5.2583084-16.370575,15.4856567-16.5763588,27.0505905l-0.0283661,2.4011383  l0.0217628,0.037262l1.8019142,0.4738235c9.5746231,2.5192566,19.496666,3.7968063,29.4922905,3.7968063  c9.9919167,0,19.9140282-1.2766037,29.490612-3.7943802l1.8235397-0.5135117L94.8119354,86.8858643z M46.0389938,46.9475746  c-0.0047836,0.1609039-0.0245934,0.3185768-0.0245934,0.4802933c0,2.6617661,0.6097336,5.242878,1.7300835,7.5747452H10.0667706  V9.8979197h55.3074493v20.1188011c-0.6078491-0.0636749-1.2241898-0.0995216-1.8489494-0.0995216  c-2.6844749,0-5.2188225,0.6247597-7.495369,1.7087917v-1.7531967H19.4093342v2.4163647v2.4162979h32.1201019  c-2.1351166,2.0146332-3.7716751,4.5479736-4.6853676,7.4093895H19.4093342v2.4163628v2.4163666H46.0389938z M37.1296959,85.5978012  c0.7484703-10.881958,7.9322701-20.2725601,18.4792099-23.5345612c0,0,1.9330368-0.765049,4.8505821-1.3568611  c-0.5701141-0.2774773-1.0995979-0.5710564-1.6102142-0.8711052c-1.2733727-0.7486076-2.3644104-1.5616989-3.2941399-2.4163628  c-0.8476562-0.7787285-1.5659447-1.5890579-2.1595726-2.4162979c-0.4692459-0.6536674-0.8636971-1.3171692-1.1921806-1.9798012  c-0.9637566-1.9416618-1.3563194-3.8836594-1.3563194-5.594944c0-6.990818,5.6868553-12.6780777,12.6782112-12.6780777  c0.4236946,0,0.8371468,0.0339622,1.2487144,0.0792427c0.200119,0.0221672,0.4021301,0.0420456,0.600235,0.0712891  c0.8343811,0.1227684,1.6424179,0.3255844,2.4162903,0.6030617c0.8514328,0.3058434,1.6593399,0.6980705,2.4163666,1.1700096  c3.5923691,2.2402992,5.9964676,6.216877,5.9964676,10.7544746c0,3.3871269-1.5186386,7.6798592-5.9964676,11.0779037  c-0.6097336,0.4625053-1.2836838,0.9046631-2.0057449,1.3295021c-0.5106125,0.3000488-1.0400925,0.5936279-1.6102753,0.8711052  c2.9176102,0.5918121,4.850647,1.3568611,4.850647,1.3568611c10.5478821,3.2624741,17.7316818,12.6535492,18.4792099,23.5365829  C72.7270737,89.7986298,54.3166656,89.7986298,37.1296959,85.5978012z"/></svg>