<?xml version="1.0" encoding="utf-8"?>
<!-- Generator: Adobe Illustrator 25.2.1, SVG Export Plug-In . SVG Version: 6.00 Build 0)  -->
<svg version="1.1" id="Layer_1" xmlns="http://www.w3.org/2000/svg" xmlns:xlink="http://www.w3.org/1999/xlink" x="0px" y="0px"
	 viewBox="0 0 1197.8 351.5" style="enable-background:new 0 0 1197.8 351.5;" xml:space="preserve">
<style type="text/css">
	.st0{fill:#3359DF;}
</style>
<g>
	<path class="st0" d="M634.5,139.4c-16.2,0-29.5,6.2-37,17.1v-10.6c0-2-1.4-3.4-3.4-3.4h-17.8c-2,0-3.4,1.4-3.4,3.4v117.8
		c0,2,1.4,3.4,3.4,3.4H594c2,0,3.4-1.4,3.4-3.4v-69.3c0-19.1,12.1-32,30-32c19.1,0,29.2,11.5,29.2,33.4v67.9c0,2,1.4,3.4,3.4,3.4
		h17.8c2,0,3.4-1.4,3.4-3.4v-73.5C681.4,158.9,663.4,139.4,634.5,139.4"/>
	<path class="st0" d="M857,181.5c4.3-13,16.6-20.5,31.3-20.5s25.7,7.5,30.1,20.5c1.3,4,1.9,8.6,1.9,14.8c0,0.8-1.5,1-2.3,1h-62.5
		c-0.8,0-1-0.3-1-1C854.4,190.1,855.6,185.5,857,181.5 M887,139.1c-26.2,0-45.5,13.3-53,36.4c-2.9,8.5-4.5,17.1-4.5,32.1
		c0,8.4,1.3,16.4,3.6,24.3l0.3,0.8c7.3,23.3,28,37.2,55.1,37.2c21.8,0,41-8.4,52.6-23.1c1.4-1.7,1.2-3.5-0.4-4.8l-11.4-10.4
		c-1.6-1.3-3.3-1.1-5.1,0.6c-5.8,6.6-16.3,14.5-33.8,14.5c-16.5,0-29.2-7.1-34.1-22.1c-0.9-2.7-1.3-6-1.3-6.5c0-0.8,0.3-1,1.1-1
		h84.5c2.2,0,3.7-1.3,3.7-3.4c0-21.2-1.5-30.1-4.2-38.4C932.4,152.4,913.1,139.1,887,139.1"/>
	<path class="st0" d="M1004.4,245.3h-5.3c-9.3,0-12.8-3.8-12.8-14.1V89.6c0-2,0-3.5-0.1-3.4h-21.2c-2,0-3.4,1.4-3.4,3.4v142.9
		c0,25.1,10,35.8,33.2,35.8h9.5c2,0,3.4-1.4,3.4-3.4v-16.2C1007.8,246.7,1006.4,245.3,1004.4,245.3"/>
	<path class="st0" d="M1070.2,248.6c-17.6,0-27.2-7.2-27.2-20.3c0-14.8,9.7-21.1,32.5-21.1h26.8c0.8,0,1,0.3,1,1V223
		C1103.3,239,1090.9,248.6,1070.2,248.6 M1133.8,248.7c-5,0-6.3-1.4-6.7-7.4v-56.1c0-33.1-14.9-46.9-53.1-46.9
		c-18.6,0-34.8,5.5-45.9,14.1c-1.4,1.4-1.6,2.8-0.7,4.7l7.5,12.8c1,1.6,3.2,1.8,4.8,0.5c9.1-6.5,18.9-10.2,32-10.2
		c26.1,0,31.3,10,31.4,26c0,0.8-0.3,1-1,1h-30.4c-34.5,0-52.8,14.5-52.8,41.9c0,25.1,17.4,40.8,45.5,40.8c17.4,0,31.4-5.8,38.7-15.9
		c0.7,10.3,3.8,14.1,17.1,14.1l16.3,0.1v-16.6C1136.8,249.9,1135.6,248.7,1133.8,248.7"/>
	<path class="st0" d="M788.3,215.2c0,18.6-14.8,33.7-33.1,33.7s-33.1-13.1-33.1-36.8v-3.8c0-0.6,0-1.3,0-2c0-1,0-1.8,0-2.7v-5.7
		c0-23.4,14.8-38.1,33.1-38.1s33.1,15.1,33.1,33.7V215.2z M791.4,85.7c-2,0-3.4,1.4-3.4,3.4v61.4c-6.2-7.3-20.3-11.6-36.3-11.6
		c-23.8,0-42.5,12.4-49.5,33.6c-3.3,10-5.2,19.9-4.5,33c0.5,9.3,1,21.5,5,31.9c8.2,21.6,25.1,32.5,47.9,32.5
		c18,0,31.8-4.7,37.5-12.6v6.1c0,2,1.4,3.4,3.4,3.4h17.8c2,0,3.4-1.4,3.4-3.4V89.1v-3.4L791.4,85.7L791.4,85.7z"/>
	<path class="st0" d="M480.2,201.7L480.2,201.7h-27.3l27.3-66.3v0l0,0l0,0v0l27.3,66.3H480.2z M556.5,260.2L493,103
		c-1.4-4.1-5.1-11-12.8-11c-7.8,0-11.4,7-12.8,11l-63.5,157.2c0,0.1-2.4,5.3-2,6c0.5,0.7,1.3,1,2.3,1h19.5c1.9,0,3.2-1,4.2-3.2
		l15.6-38.2h36.7h0h36.6l15.7,38.2c0.9,2.2,2.2,3.2,4.2,3.2h19.5c1,0,1.8-0.4,2.3-1C559,265.5,556.5,260.3,556.5,260.2"/>
	<path class="st0" d="M191.8,78.1l-20.2-24.8l-20.2,24.8l-27.2-14.8c0,0,32.6-38.6,36-42.6c3.3-3.9,6.4-7.8,11.4-7.9v0c0,0,0,0,0,0
		c0,0,0,0,0.1,0v0c5,0.1,8.1,4,11.4,7.9c3.4,4,36,42.6,36,42.6L191.8,78.1z"/>
	<path class="st0" d="M124.2,292.3c0,0,32.6,38.6,36,42.6c3.3,3.9,6.4,7.8,11.4,7.9v0c0,0,0,0,0,0c0,0,0,0,0.1,0v0
		c5-0.1,8.1-4,11.4-7.9c3.3-4,36-42.6,36-42.6l-27.2-14.8l-20.2,24.8l-20.2-24.8L124.2,292.3z"/>
	<path class="st0" d="M115.4,93.1l-31.8-3.3l3.3,31.8l-29.7,8.8c0,0-4.2-50.4-4.6-55.5c-0.4-5.1-1-10,2.4-13.6l0,0c0,0,0,0,0,0
		c0,0,0,0,0-0.1l0,0c3.6-3.4,8.5-2.9,13.6-2.4c5.2,0.4,55.5,4.6,55.5,4.6L115.4,93.1z"/>
	<path class="st0" d="M219,292.3c0,0,50.4,4.2,55.6,4.7c5.1,0.4,10,1,13.6-2.5l0,0c0,0,0,0,0,0c0,0,0,0,0,0h0
		c3.4-3.6,2.9-8.6,2.5-13.6c-0.5-5.2-4.7-55.6-4.7-55.6l-29.7,8.8l3.3,31.8l-31.8-3.3L219,292.3z"/>
	<path class="st0" d="M71.9,157.6l-24.8,20.2L71.9,198l-14.8,27.2c0,0-38.6-32.6-42.6-36c-3.9-3.3-7.8-6.4-7.9-11.4h0c0,0,0,0,0,0
		c0,0,0,0,0-0.1h0c0.1-5,4-8.1,7.9-11.4c4-3.4,42.6-36,42.6-36L71.9,157.6z"/>
	<path class="st0" d="M286.1,225.2c0,0,38.6-32.6,42.6-36c3.9-3.3,7.8-6.4,7.9-11.4h0c0,0,0,0,0,0c0,0,0,0,0-0.1h0
		c-0.1-5-4-8.1-7.9-11.4c-4-3.3-42.6-36-42.6-36l-14.8,27.2l24.8,20.2L271.3,198L286.1,225.2z"/>
	<path class="st0" d="M86.8,234l-3.3,31.8l31.8-3.3l8.8,29.7c0,0-50.4,4.2-55.5,4.6c-5.1,0.4-10,1-13.6-2.5l0,0c0,0,0,0,0,0
		c0,0,0,0-0.1,0l0,0c-3.4-3.6-2.9-8.5-2.4-13.6c0.4-5.2,4.7-55.5,4.7-55.5L86.8,234z"/>
	<path class="st0" d="M286.1,130.4c0,0,4.2-50.4,4.7-55.6c0.4-5.1,1-10-2.5-13.6v0c0,0,0,0,0,0c0,0,0,0,0-0.1l0,0
		c-3.6-3.4-8.6-2.9-13.6-2.5c-5.2,0.4-55.5,4.7-55.5,4.7l8.8,29.7l31.8-3.3l-3.3,31.8L286.1,130.4z"/>
</g>
<g>
	<path class="st0" d="M1173.3,255.4v1.5h-4.2v11.4h-1.7v-11.4h-4.2v-1.5H1173.3z"/>
	<path class="st0" d="M1182.1,264c0.1,0.2,0.1,0.3,0.2,0.5c0.1-0.2,0.1-0.3,0.2-0.5c0.1-0.1,0.1-0.3,0.2-0.5l4.3-7.9
		c0.1-0.1,0.2-0.2,0.2-0.2s0.2,0,0.4,0h1.3v12.8h-1.5v-9.4c0-0.1,0-0.3,0-0.4c0-0.1,0-0.3,0-0.4l-4.4,8c-0.2,0.3-0.4,0.4-0.6,0.4
		h-0.2c-0.3,0-0.5-0.1-0.6-0.4l-4.5-8c0,0.2,0,0.3,0,0.5s0,0.3,0,0.4v9.4h-1.5v-12.8h1.3c0.2,0,0.3,0,0.4,0c0.1,0,0.2,0.1,0.2,0.2
		l4.4,7.9C1182,263.7,1182,263.9,1182.1,264z"/>
</g>
</svg>
