<svg width="358" height="191" viewBox="0 0 358 191" fill="none" xmlns="http://www.w3.org/2000/svg">
<g style="mix-blend-mode:darken" opacity="0.7">
<path d="M54.6115 163.202C46.6617 168.953 44.4087 179.073 44.4087 179.073C44.4087 179.073 55.0447 179.867 62.9944 174.116C70.9442 168.364 73.1972 158.245 73.1972 158.245C73.1972 158.245 62.5612 157.45 54.6115 163.202Z" fill="#F1F1F1"/>
<path d="M57.923 165.902C54.1023 174.782 44.5334 179.358 44.5334 179.358C44.5334 179.358 41.1591 169.537 44.9798 160.657C48.8005 151.776 58.3694 147.2 58.3694 147.2C58.3694 147.2 61.7437 157.022 57.923 165.902Z" fill="#F1F1F1"/>
<path d="M286.644 140.23C285.799 134.708 285.576 129.113 285.978 123.544L286.644 114.328C282.977 121.41 283.805 130.73 286.644 140.23V140.23Z" fill="#CACACA"/>
<path d="M289.503 141.772C289.097 138.477 288.989 135.154 289.183 131.84L289.503 126.354C287.739 130.569 288.138 136.117 289.503 141.772Z" fill="#CACACA"/>
<path d="M302.214 148.557V151.641C302.213 151.886 302.112 152.12 301.933 152.293C301.755 152.467 301.513 152.564 301.261 152.566H299.672C299.63 152.566 299.589 152.573 299.55 152.589C299.512 152.604 299.477 152.627 299.447 152.656C299.417 152.684 299.394 152.718 299.378 152.756C299.362 152.793 299.354 152.834 299.354 152.874V178.16C299.353 178.405 299.252 178.64 299.074 178.813C298.895 178.986 298.654 179.084 298.401 179.085H279.02C278.767 179.085 278.525 178.987 278.346 178.814C278.167 178.64 278.067 178.405 278.067 178.16V152.874C278.066 152.792 278.033 152.714 277.973 152.656C277.914 152.599 277.833 152.566 277.749 152.566H275.842C275.59 152.566 275.347 152.468 275.169 152.295C274.99 152.121 274.889 151.886 274.889 151.641V148.557C274.889 148.435 274.914 148.315 274.961 148.203C275.009 148.09 275.08 147.988 275.168 147.902C275.257 147.817 275.362 147.748 275.478 147.702C275.593 147.656 275.717 147.632 275.842 147.632H301.261C301.513 147.633 301.755 147.73 301.934 147.904C302.112 148.077 302.213 148.312 302.214 148.557V148.557Z" fill="#F2F2F2"/>
<path d="M299.383 153.213H278.095V154.138H299.383V153.213Z" fill="#E6E6E6"/>
<path d="M299.354 166.826C292.231 169.687 285.03 169.719 277.749 166.826V160.309C284.758 158.024 292.345 158.024 299.354 160.309V166.826Z" fill="#E6E6E6"/>
<path d="M180.034 67.1769C195.936 67.1769 208.827 54.6657 208.827 39.2324C208.827 23.7991 195.936 11.2879 180.034 11.2879C164.132 11.2879 151.241 23.7991 151.241 39.2324C151.241 54.6657 164.132 67.1769 180.034 67.1769Z" fill="#FEB8B8"/>
<path d="M206.927 15.1242C202.622 8.33987 195.884 3.34076 188.009 1.08918L184.474 3.59266V0.341962C182.583 0.0610329 180.669 -0.047189 178.757 0.0187195L175.707 2.69675V0.241212C171.192 0.785774 166.842 2.23242 162.931 4.48992C159.021 6.74742 155.634 9.7668 152.986 13.3577C146.363 22.6239 145.245 35.5151 151.759 44.8556C153.547 39.5222 155.718 34.5179 157.506 29.185C158.912 29.371 160.336 29.3777 161.743 29.205L163.919 24.2783L164.526 28.9965C171.27 28.4265 181.271 27.1745 187.664 26.0276L187.042 22.4078L190.761 25.4156C192.719 24.9781 193.882 24.5811 193.786 24.2778C198.541 31.7166 204.359 36.4676 209.113 43.9064C210.918 33.4173 212.997 24.6958 206.927 15.1242Z" fill="#2F2E41"/>
<path d="M241.959 111.093C240.969 105.311 239.948 99.4193 237.18 94.2114C235.36 90.8002 232.472 87.5495 228.579 86.875C227.812 86.8087 227.058 86.6393 226.339 86.3718C225.198 85.8385 209.868 77.3449 207.431 75.8655C205.339 74.5956 202.036 72.244 200.371 72.244C198.696 72.2083 192.272 73.6593 167.199 71.7571C167.199 71.7571 160.311 74.3921 154.981 77.5871C154.9 77.5355 128.957 91.0561 127.983 91.0205C126.137 90.9451 124.421 92.0921 123.363 93.5364C122.305 94.9807 121.809 96.7688 121.29 98.4976C126.956 110.745 132.14 123.007 137.807 135.254C138.073 135.715 138.214 136.234 138.217 136.763C138.103 137.311 137.862 137.827 137.512 138.271C134.733 142.603 134.821 148.053 135.125 153.145C135.429 158.237 135.805 163.616 133.46 168.18C132.822 169.433 131.993 170.58 131.386 171.833C129.966 174.671 129.452 183.748 130.282 186.797L234.231 189.687C231.996 183.725 241.959 111.093 241.959 111.093Z" fill="#6C63FF"/>
<path d="M112.304 135.797C112.097 137.253 112.076 138.729 112.242 140.19L113.732 160.956C113.872 162.913 114.009 164.865 114.199 166.818C114.556 170.607 115.09 174.365 115.753 178.119C115.768 178.652 116 179.157 116.399 179.524C116.797 179.891 117.329 180.089 117.878 180.076C124.437 181.423 131.213 181.369 137.906 181.002C148.12 180.449 174.25 179.402 175.846 177.389C177.443 175.377 176.512 172.121 174.431 170.493C172.349 168.866 137.867 164.898 137.867 164.898C138.204 162.307 139.22 159.866 140.184 157.406C141.916 153.042 143.534 148.535 143.565 143.861C143.596 139.186 141.781 134.271 137.836 131.593C134.59 129.395 130.411 128.987 126.456 129.078C123.579 129.158 118.607 128.489 115.978 129.581C113.898 130.47 112.693 133.821 112.304 135.797Z" fill="#FBBEBE"/>
<path d="M120.99 98.8704C120.485 99.3836 120.093 99.9915 119.839 100.657C115.648 109.823 113.173 119.64 112.529 129.649C112.54 130.137 112.424 130.62 112.192 131.053C111.963 131.341 111.708 131.609 111.43 131.853C111.188 132.132 111.004 132.454 110.89 132.802C110.776 133.149 110.734 133.515 110.766 133.879C110.798 134.242 110.903 134.596 111.075 134.92C111.248 135.244 111.485 135.532 111.772 135.767C111.819 135.806 111.868 135.843 111.917 135.878C112.773 134.316 114.82 133.805 116.641 133.67C125.355 133.001 133.868 136.935 142.609 136.639C141.993 134.57 141.106 132.583 140.603 130.49C138.378 121.196 143.926 111.078 140.525 102.126C139.845 100.335 138.71 98.5741 136.922 97.7891C136.181 97.4992 135.406 97.3001 134.615 97.1965C132.406 96.8092 128.009 95.1536 125.874 95.8179C125.086 96.0647 124.775 96.7839 124.121 97.2186C123.129 97.8339 121.812 98.0601 120.99 98.8704Z" fill="#6C63FF"/>
<path d="M242.022 129.581C239.393 128.489 234.421 129.158 231.544 129.078C227.589 128.987 223.41 129.395 220.164 131.593C216.219 134.271 214.404 139.186 214.435 143.861C214.467 148.535 216.084 153.042 217.816 157.406C218.78 159.866 219.796 162.307 220.133 164.898C220.133 164.898 185.651 168.866 183.569 170.493C181.488 172.121 180.557 175.377 182.154 177.389C183.75 179.402 233.563 181.423 240.122 180.076C240.671 180.089 241.203 179.891 241.601 179.524C242 179.157 242.232 178.652 242.247 178.119C242.91 174.365 243.444 170.607 243.801 166.818C243.991 164.865 244.128 162.913 244.268 160.956L245.758 140.19C245.924 138.729 245.903 137.253 245.696 135.797C245.307 133.821 244.102 130.47 242.022 129.581Z" fill="#FBBEBE"/>
<path d="M233.878 97.2186C233.225 96.7838 232.914 96.0646 232.126 95.8179C229.991 95.1537 225.594 96.8092 223.385 97.1965C222.594 97.3001 221.819 97.4992 221.078 97.7891C219.29 98.574 218.155 100.335 217.475 102.126C214.074 111.078 219.622 121.196 217.397 130.49C216.894 132.583 216.007 134.57 215.391 136.639C224.132 136.935 232.645 133.001 241.359 133.67C243.18 133.805 245.227 134.316 246.083 135.878C246.132 135.843 246.181 135.806 246.228 135.767C246.515 135.532 246.752 135.244 246.924 134.92C247.097 134.596 247.202 134.242 247.234 133.879C247.266 133.515 247.224 133.149 247.11 132.802C246.996 132.454 246.812 132.132 246.57 131.853C246.292 131.609 246.037 131.341 245.808 131.053C245.576 130.62 245.46 130.137 245.471 129.649C244.827 119.64 242.352 109.823 238.161 100.657C237.907 99.9915 237.515 99.3836 237.01 98.8704C236.188 98.0601 234.871 97.8339 233.878 97.2186Z" fill="#6C63FF"/>
<path d="M171.506 181.068C175.798 181.068 179.278 177.691 179.278 173.525C179.278 169.36 175.798 165.983 171.506 165.983C167.214 165.983 163.735 169.36 163.735 173.525C163.735 177.691 167.214 181.068 171.506 181.068Z" fill="#FBBEBE"/>
<path d="M188.714 181.068C193.006 181.068 196.485 177.691 196.485 173.525C196.485 169.36 193.006 165.983 188.714 165.983C184.422 165.983 180.943 169.36 180.943 173.525C180.943 177.691 184.422 181.068 188.714 181.068Z" fill="#FBBEBE"/>
<path d="M236.684 190.521H129.919C128.672 190.519 127.477 190.038 126.596 189.183C125.714 188.327 125.219 187.168 125.217 185.958V123.095C125.219 121.886 125.714 120.726 126.596 119.87C127.477 119.015 128.672 118.534 129.919 118.532H236.684C237.93 118.534 239.125 119.015 240.007 119.87C240.888 120.726 241.384 121.886 241.386 123.095V185.958C241.384 187.168 240.888 188.327 240.007 189.183C239.125 190.038 237.93 190.519 236.684 190.521Z" fill="#3F3D56"/>
<path d="M183.042 157.546C184.76 157.546 186.153 156.194 186.153 154.527C186.153 152.859 184.76 151.508 183.042 151.508C181.324 151.508 179.932 152.859 179.932 154.527C179.932 156.194 181.324 157.546 183.042 157.546Z" fill="white"/>
<path d="M358 177.841H0V188.518H21.1753V191H336.833V188.518H358V177.841Z" fill="#F1F1F1"/>
<path d="M153.557 49.6478C148.93 49.6478 145.18 45.7122 145.18 40.8573V36.462C145.18 31.6071 148.93 27.6715 153.557 27.6715V49.6478H153.557Z" fill="#6C63FF"/>
<path d="M207.024 27.6715C211.651 27.6715 215.401 31.6072 215.401 36.462V40.8573C215.401 45.7122 211.651 49.6478 207.024 49.6478V27.6715Z" fill="#6C63FF"/>
<path d="M211.414 37.1527H210.085C210.085 19.4645 196.371 5.07395 179.515 5.07395C162.659 5.07395 148.946 19.4645 148.946 37.1527H147.617C147.617 18.6954 161.926 3.67923 179.515 3.67923C197.104 3.67924 211.414 18.6954 211.414 37.1527Z" fill="#6C63FF"/>
</g>
</svg>
