<svg width="112" height="13" viewBox="0 0 112 13" fill="none" xmlns="http://www.w3.org/2000/svg">
<path d="M9.82324 1.9375C9.84603 1.93294 9.86654 1.93066 9.88477 1.93066C9.90755 1.92611 9.92806 1.92383 9.94629 1.92383C10.0283 1.92383 10.0944 1.95117 10.1445 2.00586C10.1947 2.05599 10.2288 2.14714 10.2471 2.2793C10.2562 2.36133 10.2699 2.47754 10.2881 2.62793C10.3109 2.77376 10.3337 2.93783 10.3564 3.12012C10.3838 3.29785 10.4111 3.48242 10.4385 3.67383C10.4704 3.86523 10.4977 4.04297 10.5205 4.20703C10.5433 4.36654 10.5638 4.50553 10.582 4.62402C10.6003 4.73796 10.6117 4.81087 10.6162 4.84277C10.7165 5.64941 10.8053 6.29655 10.8828 6.78418C10.9603 7.27181 11.015 7.63184 11.0469 7.86426L11.5049 11.5625L11.4365 11.7744C11.4274 11.8063 11.3682 11.8451 11.2588 11.8906C11.1494 11.9362 11.0173 11.984 10.8623 12.0342C10.7074 12.0889 10.5387 12.1413 10.3564 12.1914C10.1742 12.2415 10.0055 12.2871 9.85059 12.3281C9.69564 12.3691 9.56348 12.401 9.4541 12.4238C9.34928 12.4512 9.2946 12.4648 9.29004 12.4648C9.18066 12.4648 9.09408 12.3851 9.03027 12.2256C8.96647 12.0661 8.91406 11.8633 8.87305 11.6172C8.83203 11.3711 8.79785 11.1022 8.77051 10.8105C8.74772 10.5189 8.72038 10.2386 8.68848 9.96973C8.66113 9.74642 8.63607 9.52083 8.61328 9.29297C8.59049 9.0651 8.56543 8.83268 8.53809 8.5957L8.27148 6.59961L5.73535 11.2412C5.65788 11.3506 5.5804 11.4303 5.50293 11.4805C5.42546 11.526 5.35254 11.5488 5.28418 11.5488C5.18392 11.5488 5.10417 11.5192 5.04492 11.46C4.99023 11.4007 4.9515 11.3278 4.92871 11.2412C4.84212 10.9541 4.76693 10.7126 4.70312 10.5166C4.64388 10.3161 4.58691 10.1338 4.53223 9.96973C4.4821 9.80566 4.43424 9.64616 4.38867 9.49121C4.3431 9.33626 4.29069 9.15853 4.23145 8.95801C4.17676 8.75293 4.11296 8.51367 4.04004 8.24023C3.97168 7.96224 3.88737 7.62272 3.78711 7.22168L3.5752 8.20605L2.59082 12.3828C2.57715 12.4375 2.52018 12.4648 2.41992 12.4648C2.32422 12.4648 2.19206 12.4466 2.02344 12.4102C1.85938 12.3737 1.6862 12.3281 1.50391 12.2734C1.32617 12.2233 1.15072 12.1686 0.977539 12.1094C0.808919 12.0547 0.674479 12.0046 0.574219 11.959C0.551432 11.9499 0.52181 11.9294 0.485352 11.8975C0.453451 11.861 0.4375 11.8063 0.4375 11.7334C0.4375 11.7152 0.444336 11.6764 0.458008 11.6172C0.47168 11.5579 0.48763 11.4896 0.505859 11.4121C0.528646 11.3301 0.551432 11.248 0.574219 11.166C0.601562 11.084 0.626628 11.0111 0.649414 10.9473C0.708659 10.7923 0.761068 10.61 0.806641 10.4004C0.856771 10.1908 0.902344 9.97884 0.943359 9.76465C0.984375 9.55046 1.02083 9.34538 1.05273 9.14941C1.08919 8.95345 1.12337 8.78939 1.15527 8.65723L1.99609 4.7334L2.24902 3.62598C2.28092 3.4847 2.31055 3.34798 2.33789 3.21582C2.36979 3.0791 2.39714 2.95605 2.41992 2.84668C2.44271 2.7373 2.46094 2.64844 2.47461 2.58008C2.48828 2.51172 2.49512 2.47298 2.49512 2.46387L4.2041 1.9375C4.2679 1.9375 4.32259 1.94434 4.36816 1.95801C4.41829 1.96712 4.4502 2.00358 4.46387 2.06738L5.82422 6.44238L7.69043 2.51172L9.82324 1.9375ZM19.4209 10.626C19.4163 10.6442 19.4141 10.6624 19.4141 10.6807C19.4141 10.6943 19.4141 10.708 19.4141 10.7217C19.4141 10.8356 19.4323 10.9313 19.4688 11.0088C19.5052 11.0817 19.5439 11.1432 19.585 11.1934C19.6305 11.2389 19.6715 11.2777 19.708 11.3096C19.7445 11.3369 19.7627 11.362 19.7627 11.3848C19.7627 11.4486 19.6943 11.5078 19.5576 11.5625L17.7188 12.3486C17.7142 12.3532 17.6982 12.3555 17.6709 12.3555C17.6344 12.3555 17.598 12.3236 17.5615 12.2598C17.5251 12.196 17.4886 12.1139 17.4521 12.0137C17.4202 11.918 17.3883 11.8154 17.3564 11.7061C17.3291 11.5921 17.304 11.4873 17.2812 11.3916C16.9941 11.7243 16.6842 11.9681 16.3516 12.123C16.0189 12.278 15.6885 12.3555 15.3604 12.3555C14.9775 12.3555 14.6038 12.2712 14.2393 12.1025C13.8747 11.9339 13.5511 11.6947 13.2686 11.3848C12.986 11.0703 12.7581 10.6921 12.585 10.25C12.4163 9.80794 12.332 9.3112 12.332 8.75977C12.332 8.10807 12.4255 7.51335 12.6123 6.97559C12.8037 6.43783 13.0612 5.97526 13.3848 5.58789C13.7083 5.20052 14.0843 4.90202 14.5127 4.69238C14.9456 4.47819 15.4036 4.37109 15.8867 4.37109C16.2285 4.37109 16.5521 4.44173 16.8574 4.58301C17.1628 4.71973 17.4521 4.89746 17.7256 5.11621C17.7529 4.97949 17.7689 4.87012 17.7734 4.78809C17.778 4.70605 17.7871 4.64225 17.8008 4.59668C17.819 4.55111 17.8509 4.52148 17.8965 4.50781C17.9421 4.48958 18.0173 4.47591 18.1221 4.4668C18.4502 4.42122 18.776 4.38021 19.0996 4.34375C19.4277 4.30273 19.7695 4.27311 20.125 4.25488L19.4209 10.626ZM17.377 8.04883C17.4225 7.78906 17.4521 7.54525 17.4658 7.31738C17.484 7.08496 17.4977 6.87305 17.5068 6.68164C17.4339 6.62695 17.3542 6.56999 17.2676 6.51074C17.1855 6.4515 17.0944 6.39681 16.9941 6.34668C16.8984 6.29199 16.7959 6.2487 16.6865 6.2168C16.5817 6.1849 16.4701 6.16895 16.3516 6.16895C16.1055 6.16895 15.8981 6.2487 15.7295 6.4082C15.5654 6.56771 15.431 6.76367 15.3262 6.99609C15.2259 7.22852 15.153 7.47461 15.1074 7.73438C15.0664 7.99414 15.0459 8.22428 15.0459 8.4248C15.0459 9.14486 15.1393 9.6735 15.3262 10.0107C15.5176 10.3434 15.7819 10.5098 16.1191 10.5098C16.2559 10.5098 16.4085 10.471 16.5771 10.3936C16.7458 10.3161 16.9167 10.209 17.0898 10.0723L17.377 8.04883ZM24.9375 12.3965C24.9329 12.3919 24.8988 12.3304 24.835 12.2119C24.7757 12.098 24.696 11.9499 24.5957 11.7676C24.5 11.5807 24.3906 11.3734 24.2676 11.1455C24.1491 10.9176 24.0283 10.6875 23.9053 10.4551C23.7321 10.6875 23.5612 10.9176 23.3926 11.1455C23.224 11.3734 23.0736 11.5807 22.9414 11.7676C22.8092 11.9499 22.6999 12.098 22.6133 12.2119C22.5267 12.3304 22.4811 12.3919 22.4766 12.3965C22.4447 12.4421 22.4014 12.4648 22.3467 12.4648C22.3193 12.4648 22.3011 12.4626 22.292 12.458C22.1553 12.3896 22.0072 12.3281 21.8477 12.2734C21.6882 12.2233 21.5241 12.1755 21.3555 12.1299C21.1914 12.0889 21.0251 12.0479 20.8564 12.0068C20.6878 11.9704 20.526 11.9316 20.3711 11.8906C20.3255 11.8815 20.3027 11.8587 20.3027 11.8223C20.3027 11.7904 20.321 11.7493 20.3574 11.6992C20.3939 11.6491 20.4508 11.5716 20.5283 11.4668L22.791 8.37012C22.5176 7.86426 22.2464 7.36751 21.9775 6.87988C21.7132 6.39225 21.4398 5.88867 21.1572 5.36914C21.1071 5.27799 21.0684 5.20736 21.041 5.15723C21.0137 5.1071 21 5.0638 21 5.02734C21 4.98633 21.0296 4.95898 21.0889 4.94531C21.4307 4.86784 21.7793 4.78809 22.1348 4.70605C22.4948 4.61947 22.8275 4.51009 23.1328 4.37793C23.1465 4.37337 23.167 4.37109 23.1943 4.37109C23.2536 4.37109 23.2923 4.39388 23.3105 4.43945L24.3359 6.29883L25.7646 4.43945C25.7965 4.39388 25.8398 4.37109 25.8945 4.37109C25.9219 4.37109 25.9401 4.37337 25.9492 4.37793C26.2272 4.51009 26.5371 4.61947 26.8789 4.70605C27.2253 4.78809 27.5579 4.86784 27.877 4.94531C27.9225 4.95898 27.9453 4.97949 27.9453 5.00684C27.9453 5.04785 27.9271 5.09342 27.8906 5.14355C27.8542 5.18913 27.7972 5.26432 27.7197 5.36914C27.3232 5.88867 26.9382 6.39225 26.5645 6.87988C26.1908 7.36296 25.8193 7.8597 25.4502 8.37012L27.0908 11.4668C27.1364 11.5534 27.1729 11.6217 27.2002 11.6719C27.2275 11.722 27.2412 11.7653 27.2412 11.8018C27.2412 11.8473 27.2139 11.877 27.1592 11.8906C26.8174 11.9681 26.4665 12.0479 26.1064 12.1299C25.751 12.2165 25.4206 12.3258 25.1152 12.458C25.1016 12.4626 25.0811 12.4648 25.0537 12.4648C25.0036 12.4648 24.9648 12.4421 24.9375 12.3965ZM28.4648 9.10156C28.5241 8.47721 28.5833 7.8597 28.6426 7.24902C28.7018 6.63835 28.7542 6.01172 28.7998 5.36914C28.8089 5.21875 28.8226 5.11621 28.8408 5.06152C28.8636 5.00228 28.916 4.96354 28.998 4.94531C29.3854 4.86784 29.791 4.78809 30.2148 4.70605C30.6387 4.61947 31.0488 4.51009 31.4453 4.37793C31.459 4.37337 31.4795 4.37109 31.5068 4.37109C31.557 4.37109 31.582 4.38932 31.582 4.42578L30.9668 11.084C30.9531 11.2344 30.9372 11.3392 30.9189 11.3984C30.9007 11.4531 30.8506 11.4896 30.7686 11.5078C30.3812 11.6263 29.9893 11.7585 29.5928 11.9043C29.1963 12.0501 28.777 12.1982 28.335 12.3486C28.3213 12.3532 28.3008 12.3555 28.2734 12.3555C28.2233 12.3555 28.1982 12.3327 28.1982 12.2871C28.1982 12.2826 28.2028 12.221 28.2119 12.1025C28.221 11.984 28.2324 11.8314 28.2461 11.6445C28.2643 11.4577 28.2826 11.248 28.3008 11.0156C28.319 10.7832 28.3372 10.5508 28.3555 10.3184C28.3783 10.0859 28.3988 9.86263 28.417 9.64844C28.4352 9.43424 28.4512 9.25195 28.4648 9.10156ZM28.9775 3.64648C28.9912 3.45052 29.0003 3.30013 29.0049 3.19531C29.014 3.09049 29.0208 3.01302 29.0254 2.96289C29.0299 2.9082 29.0322 2.87402 29.0322 2.86035C29.0322 2.84668 29.0322 2.83757 29.0322 2.83301C29.0368 2.82389 29.0391 2.81022 29.0391 2.79199C29.0436 2.76921 29.0482 2.72591 29.0527 2.66211C29.0573 2.59375 29.0641 2.49577 29.0732 2.36816C29.0824 2.24056 29.096 2.0651 29.1143 1.8418C29.1234 1.69141 29.137 1.58887 29.1553 1.53418C29.1781 1.47493 29.2305 1.4362 29.3125 1.41797C29.6999 1.34049 30.1055 1.26074 30.5293 1.17871C30.9531 1.09212 31.3633 0.982747 31.7598 0.850586C31.7734 0.846029 31.7939 0.84375 31.8213 0.84375C31.835 0.871094 31.8532 0.889323 31.876 0.898438L31.8965 0.912109L31.7461 2.78516C31.7324 2.93555 31.7142 3.04036 31.6914 3.09961C31.6732 3.15885 31.6253 3.19531 31.5479 3.20898C31.1605 3.2819 30.7686 3.36165 30.3721 3.44824C29.9756 3.53483 29.5563 3.62142 29.1143 3.70801C29.1006 3.71257 29.0801 3.71484 29.0527 3.71484C29.0026 3.71484 28.9775 3.69206 28.9775 3.64648ZM42.417 12.2461C42.3669 12.2598 42.3008 12.2803 42.2188 12.3076C42.1367 12.3395 42.057 12.3555 41.9795 12.3555C41.9157 12.3555 41.8587 12.3395 41.8086 12.3076C41.763 12.2757 41.7402 12.221 41.7402 12.1436V12.1025C41.7721 11.7699 41.7995 11.501 41.8223 11.2959C41.8451 11.0863 41.8633 10.9176 41.877 10.79C41.8906 10.6624 41.902 10.5667 41.9111 10.5029C41.9202 10.4346 41.9294 10.373 41.9385 10.3184C41.9476 10.2591 41.9544 10.1953 41.959 10.127C41.9681 10.0586 41.9795 9.96289 41.9932 9.83984C42.0068 9.71224 42.0228 9.5459 42.041 9.34082C42.0638 9.13118 42.0911 8.85775 42.123 8.52051C42.1413 8.33822 42.1595 8.1582 42.1777 7.98047C42.2005 7.79818 42.2119 7.63184 42.2119 7.48145C42.2119 7.29004 42.2005 7.11686 42.1777 6.96191C42.1595 6.80241 42.123 6.66797 42.0684 6.55859C42.0182 6.44466 41.9476 6.35579 41.8564 6.29199C41.7653 6.22819 41.6491 6.19629 41.5078 6.19629C41.4212 6.19629 41.3073 6.21452 41.166 6.25098C41.0293 6.28743 40.8903 6.35352 40.749 6.44922C40.6077 6.54036 40.4801 6.66341 40.3662 6.81836C40.2523 6.96875 40.1794 7.16016 40.1475 7.39258V7.41992C40.0928 7.93945 40.0426 8.39062 39.9971 8.77344C39.9561 9.15169 39.9196 9.47754 39.8877 9.75098C39.8558 10.0244 39.8285 10.2523 39.8057 10.4346C39.7874 10.6169 39.7715 10.7718 39.7578 10.8994C39.7441 11.0225 39.7327 11.125 39.7236 11.207C39.7191 11.2891 39.7168 11.3665 39.7168 11.4395C39.7168 11.4759 39.7168 11.5078 39.7168 11.5352C39.7214 11.5579 39.7236 11.5785 39.7236 11.5967C39.7236 11.6331 39.7054 11.665 39.6689 11.6924C39.637 11.7152 39.5618 11.7448 39.4434 11.7812L37.8369 12.2461C37.7868 12.2598 37.7207 12.2803 37.6387 12.3076C37.5566 12.3395 37.4769 12.3555 37.3994 12.3555C37.3356 12.3555 37.2786 12.3395 37.2285 12.3076C37.1829 12.2757 37.1602 12.221 37.1602 12.1436V12.1025C37.1921 11.7699 37.2171 11.501 37.2354 11.2959C37.2581 11.0863 37.2764 10.9176 37.29 10.79C37.3083 10.6624 37.3219 10.5667 37.3311 10.5029C37.3402 10.4346 37.347 10.373 37.3516 10.3184C37.3607 10.2591 37.3698 10.1953 37.3789 10.127C37.388 10.0586 37.3971 9.96289 37.4062 9.83984C37.4199 9.71224 37.4359 9.5459 37.4541 9.34082C37.4769 9.13118 37.5042 8.85775 37.5361 8.52051C37.5544 8.33822 37.5726 8.1582 37.5908 7.98047C37.6136 7.79818 37.625 7.63184 37.625 7.48145C37.625 7.29004 37.6159 7.11686 37.5977 6.96191C37.5794 6.80241 37.5452 6.66797 37.4951 6.55859C37.4495 6.44466 37.3857 6.35579 37.3037 6.29199C37.2217 6.22819 37.1169 6.19629 36.9893 6.19629C36.8981 6.19629 36.7728 6.21908 36.6133 6.26465C36.4583 6.31022 36.3011 6.38542 36.1416 6.49023C35.9867 6.59505 35.8477 6.73405 35.7246 6.90723C35.6061 7.07585 35.5378 7.28548 35.5195 7.53613C35.4831 7.87337 35.4535 8.15137 35.4307 8.37012C35.4079 8.58431 35.3896 8.76204 35.376 8.90332C35.3623 9.04004 35.3509 9.15169 35.3418 9.23828C35.3372 9.32031 35.3327 9.39779 35.3281 9.4707C35.3236 9.48893 35.3167 9.54134 35.3076 9.62793C35.2985 9.70996 35.2871 9.81022 35.2734 9.92871C35.2643 10.0426 35.2529 10.168 35.2393 10.3047C35.2301 10.4368 35.221 10.5622 35.2119 10.6807C35.2028 10.7946 35.1937 10.8949 35.1846 10.9814C35.18 11.0635 35.1777 11.1136 35.1777 11.1318V11.2549C35.1777 11.3005 35.1755 11.3392 35.1709 11.3711C35.1663 11.403 35.1527 11.4326 35.1299 11.46C35.1071 11.4873 35.0729 11.5124 35.0273 11.5352C34.9863 11.5579 34.9271 11.583 34.8496 11.6104L33.0586 12.2461C33.0085 12.2643 32.9424 12.2871 32.8604 12.3145C32.7783 12.3418 32.6986 12.3555 32.6211 12.3555C32.5573 12.3555 32.5003 12.3395 32.4502 12.3076C32.4046 12.2757 32.3818 12.221 32.3818 12.1436L32.9971 5.1709C33.0107 5.02051 33.0267 4.91797 33.0449 4.86328C33.0677 4.80404 33.1201 4.7653 33.2021 4.74707C33.6169 4.66504 34.0407 4.58301 34.4736 4.50098C34.9066 4.41439 35.3304 4.30501 35.7451 4.17285C35.7816 4.17285 35.8021 4.17969 35.8066 4.19336C35.8158 4.20247 35.8203 4.21842 35.8203 4.24121L35.7314 5.23926C35.9001 5.15267 36.0892 5.05924 36.2988 4.95898C36.5085 4.85417 36.7272 4.75846 36.9551 4.67188C37.1875 4.58529 37.4222 4.51465 37.6592 4.45996C37.9007 4.40072 38.1354 4.37109 38.3633 4.37109C38.6777 4.37109 38.9671 4.44401 39.2314 4.58984C39.5003 4.73112 39.7214 4.9681 39.8945 5.30078C40.0996 5.16862 40.3161 5.04557 40.5439 4.93164C40.7764 4.81771 41.0111 4.71973 41.248 4.6377C41.4896 4.55566 41.7311 4.49186 41.9727 4.44629C42.2142 4.40072 42.4489 4.37793 42.6768 4.37793C42.9639 4.37793 43.235 4.41895 43.4902 4.50098C43.7454 4.58301 43.9665 4.71745 44.1533 4.9043C44.3447 5.09115 44.4951 5.33496 44.6045 5.63574C44.7139 5.93197 44.7686 6.29427 44.7686 6.72266C44.7686 6.83203 44.7663 6.94596 44.7617 7.06445C44.7572 7.17839 44.748 7.29688 44.7344 7.41992L44.4199 10.3457C44.3971 10.5371 44.3835 10.7148 44.3789 10.8789C44.3743 11.0384 44.3721 11.2253 44.3721 11.4395C44.3721 11.4759 44.3721 11.5078 44.3721 11.5352C44.3766 11.5579 44.3789 11.5785 44.3789 11.5967C44.3789 11.6377 44.3607 11.6696 44.3242 11.6924C44.2923 11.7152 44.2171 11.7448 44.0986 11.7812L42.417 12.2461ZM49.875 4.37109C50.3079 4.37109 50.6999 4.45312 51.0508 4.61719C51.4062 4.77669 51.7093 4.98633 51.96 5.24609C52.2152 5.5013 52.4111 5.78841 52.5479 6.10742C52.6846 6.42643 52.7529 6.74544 52.7529 7.06445C52.7529 7.34701 52.6663 7.63184 52.4932 7.91895C52.32 8.2015 52.0762 8.45671 51.7617 8.68457C51.4518 8.91243 51.0781 9.09701 50.6406 9.23828C50.2031 9.37956 49.7223 9.4502 49.1982 9.4502C48.9248 9.4502 48.6377 9.42285 48.3369 9.36816C48.3551 9.56413 48.4121 9.73275 48.5078 9.87402C48.6035 10.0153 48.7243 10.1315 48.8701 10.2227C49.016 10.3138 49.18 10.3822 49.3623 10.4277C49.5492 10.4688 49.7406 10.4893 49.9365 10.4893C50.1553 10.4893 50.3649 10.471 50.5654 10.4346C50.7705 10.3936 50.9665 10.3411 51.1533 10.2773C51.3402 10.2135 51.5202 10.1429 51.6934 10.0654C51.8665 9.98796 52.0306 9.91048 52.1855 9.83301C52.2266 9.82389 52.2607 9.81706 52.2881 9.8125C52.32 9.80339 52.3496 9.79883 52.377 9.79883C52.377 9.79883 52.3747 9.83529 52.3701 9.9082C52.3701 9.98112 52.3701 10.0837 52.3701 10.2158C52.3701 10.348 52.3678 10.5075 52.3633 10.6943C52.3633 10.8812 52.361 11.0885 52.3564 11.3164C52.3701 11.3392 52.3792 11.362 52.3838 11.3848C52.3883 11.4076 52.3906 11.4258 52.3906 11.4395C52.3906 11.4941 52.3405 11.5534 52.2402 11.6172C52.14 11.681 52.0078 11.7471 51.8438 11.8154C51.6842 11.8838 51.4997 11.9499 51.29 12.0137C51.085 12.0775 50.8753 12.1344 50.6611 12.1846C50.4469 12.2393 50.2396 12.2803 50.0391 12.3076C49.8385 12.3395 49.6631 12.3555 49.5127 12.3555C49.0205 12.3555 48.542 12.2689 48.0771 12.0957C47.6169 11.9271 47.2067 11.6833 46.8467 11.3643C46.4912 11.0452 46.2064 10.6579 45.9922 10.2021C45.778 9.74642 45.6709 9.23372 45.6709 8.66406C45.6709 8.06706 45.7734 7.50879 45.9785 6.98926C46.1836 6.46517 46.4707 6.00944 46.8398 5.62207C47.2135 5.2347 47.6579 4.92936 48.1729 4.70605C48.6878 4.48275 49.2552 4.37109 49.875 4.37109ZM49.793 6.18945C49.6061 6.18945 49.4329 6.23047 49.2734 6.3125C49.1185 6.38997 48.9749 6.50391 48.8428 6.6543C48.7152 6.80013 48.6035 6.97786 48.5078 7.1875C48.4121 7.39258 48.3346 7.62044 48.2754 7.87109C48.7448 7.78906 49.1344 7.70247 49.4443 7.61133C49.7542 7.52018 50.0026 7.42904 50.1895 7.33789C50.3763 7.24219 50.5085 7.14876 50.5859 7.05762C50.6634 6.96191 50.7021 6.87077 50.7021 6.78418C50.7021 6.70215 50.6702 6.62467 50.6064 6.55176C50.5472 6.47884 50.472 6.41504 50.3809 6.36035C50.2897 6.30566 50.1895 6.26465 50.0801 6.2373C49.9753 6.2054 49.8796 6.18945 49.793 6.18945Z" fill="black"/>
<path d="M56.7451 12.2188L57.0869 7.54297C57.2008 5.97526 57.2852 4.82454 57.3398 4.09082C57.3945 3.3571 57.4219 2.99251 57.4219 2.99707C57.4264 2.91504 57.431 2.84668 57.4355 2.79199C57.4401 2.7373 57.4492 2.69173 57.4629 2.65527C57.4766 2.61882 57.4948 2.59147 57.5176 2.57324C57.5404 2.55501 57.5745 2.54134 57.6201 2.53223L59.9854 1.96484C60.0446 1.94661 60.1061 1.9375 60.1699 1.9375C60.2337 1.9375 60.277 1.95801 60.2998 1.99902C60.3226 2.03548 60.334 2.11296 60.334 2.23145C60.3021 2.514 60.277 2.77832 60.2588 3.02441C60.2406 3.27051 60.2246 3.50521 60.2109 3.72852C60.2018 3.95182 60.1927 4.16829 60.1836 4.37793C60.1745 4.58301 60.1631 4.78809 60.1494 4.99316C60.1221 5.21647 60.097 5.43978 60.0742 5.66309C60.056 5.88639 60.0378 6.11882 60.0195 6.36035C60.0013 6.59733 59.9808 6.85026 59.958 7.11914C59.9398 7.38346 59.917 7.67285 59.8896 7.9873L59.5889 11.5898C59.5843 11.6309 59.5752 11.6719 59.5615 11.7129C59.5524 11.7493 59.5228 11.779 59.4727 11.8018C59.4681 11.8018 59.4408 11.8109 59.3906 11.8291C59.3405 11.8473 59.2744 11.8724 59.1924 11.9043C59.1104 11.9316 59.0146 11.9613 58.9053 11.9932C58.7959 12.0251 58.6797 12.0547 58.5566 12.082C58.3516 12.1276 58.1715 12.1732 58.0166 12.2188C57.8662 12.2643 57.7318 12.3053 57.6133 12.3418C57.4948 12.3828 57.3854 12.4147 57.2852 12.4375C57.1849 12.4603 57.0846 12.4717 56.9844 12.4717C56.916 12.4717 56.859 12.4535 56.8135 12.417C56.7679 12.3805 56.7451 12.3145 56.7451 12.2188ZM61.0518 10.1133C61.0518 10.1087 61.0495 10.1064 61.0449 10.1064C61.0449 10.1019 61.0449 10.0973 61.0449 10.0928C61.0449 10.0335 61.0768 10.0039 61.1406 10.0039C61.1816 10.0039 61.2181 10.0199 61.25 10.0518C61.4323 10.2249 61.6396 10.3662 61.8721 10.4756C62.109 10.585 62.3643 10.6396 62.6377 10.6396C62.7106 10.6396 62.7949 10.6328 62.8906 10.6191C62.9863 10.6009 63.0775 10.5736 63.1641 10.5371C63.2507 10.5007 63.3213 10.4528 63.376 10.3936C63.4352 10.3298 63.4648 10.2523 63.4648 10.1611C63.4648 10.0609 63.4398 9.96973 63.3896 9.8877C63.3395 9.80111 63.2734 9.73047 63.1914 9.67578C63.1458 9.64388 63.0661 9.58919 62.9521 9.51172C62.8382 9.42969 62.7152 9.3431 62.583 9.25195C62.4554 9.16081 62.3324 9.07422 62.2139 8.99219C62.0999 8.91016 62.0202 8.85091 61.9746 8.81445C61.7695 8.65951 61.6055 8.50228 61.4824 8.34277C61.3639 8.18327 61.2728 8.01921 61.209 7.85059C61.1452 7.67741 61.1042 7.4974 61.0859 7.31055C61.0677 7.1237 61.0586 6.92546 61.0586 6.71582C61.0586 6.39681 61.1429 6.09603 61.3115 5.81348C61.4801 5.53092 61.7012 5.28255 61.9746 5.06836C62.2526 4.85417 62.5671 4.68555 62.918 4.5625C63.2689 4.4349 63.6266 4.37109 63.9912 4.37109C64.292 4.37109 64.5882 4.41667 64.8799 4.50781C65.1715 4.59896 65.4427 4.75391 65.6934 4.97266C65.7161 5.25977 65.7321 5.54232 65.7412 5.82031C65.7503 6.09831 65.764 6.38997 65.7822 6.69531C65.7822 6.75456 65.7686 6.79557 65.7412 6.81836C65.7139 6.83659 65.682 6.8457 65.6455 6.8457C65.6136 6.8457 65.5863 6.83431 65.5635 6.81152C65.4587 6.71126 65.3516 6.61328 65.2422 6.51758C65.1328 6.41732 65.0166 6.33073 64.8936 6.25781C64.7751 6.18034 64.6475 6.11882 64.5107 6.07324C64.374 6.02311 64.2282 5.99805 64.0732 5.99805C63.9775 5.99805 63.8818 6.00716 63.7861 6.02539C63.6904 6.03906 63.6038 6.06868 63.5264 6.11426C63.4489 6.15527 63.3851 6.21224 63.335 6.28516C63.2894 6.35807 63.2666 6.4515 63.2666 6.56543C63.2666 6.69759 63.2826 6.81152 63.3145 6.90723C63.3464 7.00293 63.4215 7.09635 63.54 7.1875L64.8115 8.04883C65.0439 8.20833 65.2308 8.36556 65.3721 8.52051C65.5179 8.6709 65.6318 8.82129 65.7139 8.97168C65.7959 9.12207 65.8506 9.27246 65.8779 9.42285C65.9098 9.56868 65.9258 9.71452 65.9258 9.86035C65.9258 10.2705 65.8301 10.6328 65.6387 10.9473C65.4518 11.2572 65.208 11.5169 64.9072 11.7266C64.6064 11.9316 64.2646 12.0866 63.8818 12.1914C63.5036 12.3008 63.123 12.3555 62.7402 12.3555C62.4486 12.3555 62.166 12.3236 61.8926 12.2598C61.6237 12.2005 61.373 12.1071 61.1406 11.9795L61.0518 10.1133ZM67.6895 2.06055C67.6895 2.0332 67.6872 2.00814 67.6826 1.98535C67.6826 1.96257 67.6826 1.93978 67.6826 1.91699C67.6826 1.87598 67.6986 1.8418 67.7305 1.81445C67.7624 1.78255 67.8398 1.75065 67.9629 1.71875L69.8838 1.26074C69.9339 1.25163 70 1.23112 70.082 1.19922C70.1641 1.16732 70.2438 1.15137 70.3213 1.15137C70.4808 1.15137 70.5605 1.22428 70.5605 1.37012C70.5605 1.37923 70.5537 1.47266 70.54 1.65039C70.5264 1.82812 70.5081 2.04915 70.4854 2.31348C70.4626 2.5778 70.4375 2.86719 70.4102 3.18164C70.3828 3.49154 70.3555 3.78776 70.3281 4.07031C70.3008 4.35286 70.2757 4.60124 70.2529 4.81543C70.2301 5.02507 70.2119 5.16178 70.1982 5.22559C70.4124 5.1071 70.6357 4.99544 70.8682 4.89062C71.1006 4.78581 71.333 4.69466 71.5654 4.61719C71.8024 4.53971 72.0371 4.48047 72.2695 4.43945C72.5065 4.39388 72.7344 4.37109 72.9531 4.37109C73.2311 4.37109 73.4909 4.41211 73.7324 4.49414C73.974 4.57161 74.1836 4.70378 74.3613 4.89062C74.5436 5.07292 74.6849 5.31445 74.7852 5.61523C74.89 5.91146 74.9424 6.27604 74.9424 6.70898C74.9424 6.81836 74.9401 6.93229 74.9355 7.05078C74.931 7.16471 74.9219 7.2832 74.9082 7.40625L74.6143 10.2021C74.5915 10.3936 74.5778 10.5941 74.5732 10.8037C74.5687 11.0088 74.5664 11.2207 74.5664 11.4395C74.5664 11.4759 74.5664 11.5078 74.5664 11.5352C74.571 11.5579 74.5732 11.5785 74.5732 11.5967C74.5732 11.6377 74.555 11.6696 74.5186 11.6924C74.4867 11.7152 74.4115 11.7448 74.293 11.7812L72.6182 12.2461C72.568 12.2598 72.502 12.2803 72.4199 12.3076C72.3379 12.3395 72.2581 12.3555 72.1807 12.3555C72.1032 12.3555 72.0439 12.3372 72.0029 12.3008C71.9619 12.2689 71.9414 12.2028 71.9414 12.1025C71.9733 11.7607 71.9984 11.485 72.0166 11.2754C72.0394 11.0658 72.0553 10.8994 72.0645 10.7764C72.0781 10.6488 72.0895 10.5531 72.0986 10.4893C72.1077 10.4209 72.1146 10.3617 72.1191 10.3115C72.1237 10.2568 72.1305 10.1976 72.1396 10.1338C72.1488 10.0654 72.1579 9.96745 72.167 9.83984C72.1807 9.71224 72.1966 9.54362 72.2148 9.33398C72.2376 9.12435 72.265 8.84863 72.2969 8.50684C72.3151 8.32454 72.3333 8.14453 72.3516 7.9668C72.3743 7.78451 72.3857 7.61816 72.3857 7.46777C72.3857 7.27637 72.3743 7.10319 72.3516 6.94824C72.3333 6.78874 72.2969 6.6543 72.2422 6.54492C72.1921 6.43099 72.1214 6.34212 72.0303 6.27832C71.9391 6.21452 71.8229 6.18262 71.6816 6.18262C71.5768 6.18262 71.4333 6.2054 71.251 6.25098C71.0732 6.29655 70.8932 6.37174 70.7109 6.47656C70.5332 6.58138 70.3737 6.72038 70.2324 6.89355C70.0957 7.06217 70.0182 7.27181 70 7.52246C69.9635 7.87337 69.9339 8.16048 69.9111 8.38379C69.8929 8.6071 69.877 8.79167 69.8633 8.9375C69.8496 9.08333 69.8382 9.19954 69.8291 9.28613C69.8245 9.37272 69.82 9.45247 69.8154 9.52539C69.8109 9.54818 69.804 9.60514 69.7949 9.69629C69.7858 9.78288 69.7744 9.8877 69.7607 10.0107C69.7471 10.1338 69.7334 10.266 69.7197 10.4072C69.7061 10.5439 69.6924 10.6738 69.6787 10.7969C69.6696 10.9199 69.6605 11.027 69.6514 11.1182C69.6468 11.2048 69.6445 11.2594 69.6445 11.2822C69.6445 11.3187 69.6445 11.3506 69.6445 11.3779C69.6491 11.4007 69.6514 11.4235 69.6514 11.4463C69.6514 11.4827 69.6331 11.5146 69.5967 11.542C69.5648 11.5648 69.4896 11.5921 69.3711 11.624L67.5869 12.2461C67.5368 12.2643 67.4707 12.2871 67.3887 12.3145C67.3066 12.3418 67.2269 12.3555 67.1494 12.3555C67.0811 12.3555 67.0241 12.335 66.9785 12.2939C66.9329 12.2575 66.9102 12.1937 66.9102 12.1025L67.6895 2.06055ZM76.166 9.10156C76.2253 8.47721 76.2845 7.8597 76.3438 7.24902C76.403 6.63835 76.4554 6.01172 76.501 5.36914C76.5101 5.21875 76.5238 5.11621 76.542 5.06152C76.5648 5.00228 76.6172 4.96354 76.6992 4.94531C77.0866 4.86784 77.4922 4.78809 77.916 4.70605C78.3398 4.61947 78.75 4.51009 79.1465 4.37793C79.1602 4.37337 79.1807 4.37109 79.208 4.37109C79.2581 4.37109 79.2832 4.38932 79.2832 4.42578L78.668 11.084C78.6543 11.2344 78.6383 11.3392 78.6201 11.3984C78.6019 11.4531 78.5518 11.4896 78.4697 11.5078C78.0824 11.6263 77.6904 11.7585 77.2939 11.9043C76.8975 12.0501 76.4782 12.1982 76.0361 12.3486C76.0225 12.3532 76.002 12.3555 75.9746 12.3555C75.9245 12.3555 75.8994 12.3327 75.8994 12.2871C75.8994 12.2826 75.904 12.221 75.9131 12.1025C75.9222 11.984 75.9336 11.8314 75.9473 11.6445C75.9655 11.4577 75.9837 11.248 76.002 11.0156C76.0202 10.7832 76.0384 10.5508 76.0566 10.3184C76.0794 10.0859 76.0999 9.86263 76.1182 9.64844C76.1364 9.43424 76.1523 9.25195 76.166 9.10156ZM76.6787 3.64648C76.6924 3.45052 76.7015 3.30013 76.7061 3.19531C76.7152 3.09049 76.722 3.01302 76.7266 2.96289C76.7311 2.9082 76.7334 2.87402 76.7334 2.86035C76.7334 2.84668 76.7334 2.83757 76.7334 2.83301C76.738 2.82389 76.7402 2.81022 76.7402 2.79199C76.7448 2.76921 76.7493 2.72591 76.7539 2.66211C76.7585 2.59375 76.7653 2.49577 76.7744 2.36816C76.7835 2.24056 76.7972 2.0651 76.8154 1.8418C76.8245 1.69141 76.8382 1.58887 76.8564 1.53418C76.8792 1.47493 76.9316 1.4362 77.0137 1.41797C77.401 1.34049 77.8066 1.26074 78.2305 1.17871C78.6543 1.09212 79.0645 0.982747 79.4609 0.850586C79.4746 0.846029 79.4951 0.84375 79.5225 0.84375C79.5361 0.871094 79.5544 0.889323 79.5771 0.898438L79.5977 0.912109L79.4473 2.78516C79.4336 2.93555 79.4154 3.04036 79.3926 3.09961C79.3743 3.15885 79.3265 3.19531 79.249 3.20898C78.8617 3.2819 78.4697 3.36165 78.0732 3.44824C77.6768 3.53483 77.2575 3.62142 76.8154 3.70801C76.8018 3.71257 76.7812 3.71484 76.7539 3.71484C76.7038 3.71484 76.6787 3.69206 76.6787 3.64648ZM90.1182 12.2461C90.068 12.2598 90.002 12.2803 89.9199 12.3076C89.8379 12.3395 89.7581 12.3555 89.6807 12.3555C89.6169 12.3555 89.5599 12.3395 89.5098 12.3076C89.4642 12.2757 89.4414 12.221 89.4414 12.1436V12.1025C89.4733 11.7699 89.5007 11.501 89.5234 11.2959C89.5462 11.0863 89.5645 10.9176 89.5781 10.79C89.5918 10.6624 89.6032 10.5667 89.6123 10.5029C89.6214 10.4346 89.6305 10.373 89.6396 10.3184C89.6488 10.2591 89.6556 10.1953 89.6602 10.127C89.6693 10.0586 89.6807 9.96289 89.6943 9.83984C89.708 9.71224 89.724 9.5459 89.7422 9.34082C89.765 9.13118 89.7923 8.85775 89.8242 8.52051C89.8424 8.33822 89.8607 8.1582 89.8789 7.98047C89.9017 7.79818 89.9131 7.63184 89.9131 7.48145C89.9131 7.29004 89.9017 7.11686 89.8789 6.96191C89.8607 6.80241 89.8242 6.66797 89.7695 6.55859C89.7194 6.44466 89.6488 6.35579 89.5576 6.29199C89.4665 6.22819 89.3503 6.19629 89.209 6.19629C89.1224 6.19629 89.0085 6.21452 88.8672 6.25098C88.7305 6.28743 88.5915 6.35352 88.4502 6.44922C88.3089 6.54036 88.1813 6.66341 88.0674 6.81836C87.9535 6.96875 87.8805 7.16016 87.8486 7.39258V7.41992C87.7939 7.93945 87.7438 8.39062 87.6982 8.77344C87.6572 9.15169 87.6208 9.47754 87.5889 9.75098C87.557 10.0244 87.5296 10.2523 87.5068 10.4346C87.4886 10.6169 87.4727 10.7718 87.459 10.8994C87.4453 11.0225 87.4339 11.125 87.4248 11.207C87.4202 11.2891 87.418 11.3665 87.418 11.4395C87.418 11.4759 87.418 11.5078 87.418 11.5352C87.4225 11.5579 87.4248 11.5785 87.4248 11.5967C87.4248 11.6331 87.4066 11.665 87.3701 11.6924C87.3382 11.7152 87.263 11.7448 87.1445 11.7812L85.5381 12.2461C85.488 12.2598 85.4219 12.2803 85.3398 12.3076C85.2578 12.3395 85.1781 12.3555 85.1006 12.3555C85.0368 12.3555 84.9798 12.3395 84.9297 12.3076C84.8841 12.2757 84.8613 12.221 84.8613 12.1436V12.1025C84.8932 11.7699 84.9183 11.501 84.9365 11.2959C84.9593 11.0863 84.9775 10.9176 84.9912 10.79C85.0094 10.6624 85.0231 10.5667 85.0322 10.5029C85.0413 10.4346 85.0482 10.373 85.0527 10.3184C85.0618 10.2591 85.071 10.1953 85.0801 10.127C85.0892 10.0586 85.0983 9.96289 85.1074 9.83984C85.1211 9.71224 85.137 9.5459 85.1553 9.34082C85.1781 9.13118 85.2054 8.85775 85.2373 8.52051C85.2555 8.33822 85.2738 8.1582 85.292 7.98047C85.3148 7.79818 85.3262 7.63184 85.3262 7.48145C85.3262 7.29004 85.3171 7.11686 85.2988 6.96191C85.2806 6.80241 85.2464 6.66797 85.1963 6.55859C85.1507 6.44466 85.0869 6.35579 85.0049 6.29199C84.9229 6.22819 84.818 6.19629 84.6904 6.19629C84.5993 6.19629 84.474 6.21908 84.3145 6.26465C84.1595 6.31022 84.0023 6.38542 83.8428 6.49023C83.6878 6.59505 83.5488 6.73405 83.4258 6.90723C83.3073 7.07585 83.2389 7.28548 83.2207 7.53613C83.1842 7.87337 83.1546 8.15137 83.1318 8.37012C83.109 8.58431 83.0908 8.76204 83.0771 8.90332C83.0635 9.04004 83.0521 9.15169 83.043 9.23828C83.0384 9.32031 83.0339 9.39779 83.0293 9.4707C83.0247 9.48893 83.0179 9.54134 83.0088 9.62793C82.9997 9.70996 82.9883 9.81022 82.9746 9.92871C82.9655 10.0426 82.9541 10.168 82.9404 10.3047C82.9313 10.4368 82.9222 10.5622 82.9131 10.6807C82.904 10.7946 82.8949 10.8949 82.8857 10.9814C82.8812 11.0635 82.8789 11.1136 82.8789 11.1318V11.2549C82.8789 11.3005 82.8766 11.3392 82.8721 11.3711C82.8675 11.403 82.8538 11.4326 82.8311 11.46C82.8083 11.4873 82.7741 11.5124 82.7285 11.5352C82.6875 11.5579 82.6283 11.583 82.5508 11.6104L80.7598 12.2461C80.7096 12.2643 80.6436 12.2871 80.5615 12.3145C80.4795 12.3418 80.3997 12.3555 80.3223 12.3555C80.2585 12.3555 80.2015 12.3395 80.1514 12.3076C80.1058 12.2757 80.083 12.221 80.083 12.1436L80.6982 5.1709C80.7119 5.02051 80.7279 4.91797 80.7461 4.86328C80.7689 4.80404 80.8213 4.7653 80.9033 4.74707C81.318 4.66504 81.7419 4.58301 82.1748 4.50098C82.6077 4.41439 83.0316 4.30501 83.4463 4.17285C83.4827 4.17285 83.5033 4.17969 83.5078 4.19336C83.5169 4.20247 83.5215 4.21842 83.5215 4.24121L83.4326 5.23926C83.6012 5.15267 83.7904 5.05924 84 4.95898C84.2096 4.85417 84.4284 4.75846 84.6562 4.67188C84.8887 4.58529 85.1234 4.51465 85.3604 4.45996C85.6019 4.40072 85.8366 4.37109 86.0645 4.37109C86.3789 4.37109 86.6683 4.44401 86.9326 4.58984C87.2015 4.73112 87.4225 4.9681 87.5957 5.30078C87.8008 5.16862 88.0173 5.04557 88.2451 4.93164C88.4775 4.81771 88.7122 4.71973 88.9492 4.6377C89.1908 4.55566 89.4323 4.49186 89.6738 4.44629C89.9154 4.40072 90.1501 4.37793 90.3779 4.37793C90.665 4.37793 90.9362 4.41895 91.1914 4.50098C91.4466 4.58301 91.6676 4.71745 91.8545 4.9043C92.0459 5.09115 92.1963 5.33496 92.3057 5.63574C92.415 5.93197 92.4697 6.29427 92.4697 6.72266C92.4697 6.83203 92.4674 6.94596 92.4629 7.06445C92.4583 7.17839 92.4492 7.29688 92.4355 7.41992L92.1211 10.3457C92.0983 10.5371 92.0846 10.7148 92.0801 10.8789C92.0755 11.0384 92.0732 11.2253 92.0732 11.4395C92.0732 11.4759 92.0732 11.5078 92.0732 11.5352C92.0778 11.5579 92.0801 11.5785 92.0801 11.5967C92.0801 11.6377 92.0618 11.6696 92.0254 11.6924C91.9935 11.7152 91.9183 11.7448 91.7998 11.7812L90.1182 12.2461ZM97.6309 5.04102C97.6445 4.99089 97.6833 4.95898 97.7471 4.94531C98.1162 4.86328 98.4945 4.77897 98.8818 4.69238C99.2692 4.60579 99.6406 4.4987 99.9961 4.37109C100.06 4.37109 100.092 4.39388 100.092 4.43945L100.789 9.10156L102.095 4.43945C102.113 4.39388 102.147 4.37109 102.197 4.37109C102.211 4.37109 102.22 4.37337 102.225 4.37793C102.229 4.37793 102.238 4.37793 102.252 4.37793C102.594 4.51009 102.945 4.61947 103.305 4.70605C103.665 4.78809 104.022 4.86784 104.378 4.94531C104.465 4.96354 104.508 5.01367 104.508 5.0957C104.508 5.15495 104.48 5.24609 104.426 5.36914L102.225 11.4668C102.188 11.5443 102.156 11.6104 102.129 11.665C102.102 11.7152 102.074 11.7562 102.047 11.7881C102.02 11.8154 101.99 11.8382 101.958 11.8564C101.926 11.8701 101.887 11.8815 101.842 11.8906C101.495 11.9635 101.145 12.0433 100.789 12.1299C100.434 12.2165 100.064 12.3258 99.6816 12.458C99.6725 12.458 99.6657 12.458 99.6611 12.458C99.6566 12.4626 99.652 12.4648 99.6475 12.4648H99.5996C99.5768 12.4648 99.5586 12.4557 99.5449 12.4375C99.5312 12.4238 99.5221 12.4102 99.5176 12.3965C99.4674 12.2005 99.4105 11.9567 99.3467 11.665C99.2829 11.3734 99.2145 11.0498 99.1416 10.6943C99.0687 10.3389 98.9912 9.95833 98.9092 9.55273C98.8271 9.14714 98.7428 8.73014 98.6562 8.30176L97.7881 11.3574C97.7653 11.4395 97.7402 11.5078 97.7129 11.5625C97.6901 11.6126 97.6628 11.6536 97.6309 11.6855C97.599 11.7129 97.5648 11.7334 97.5283 11.7471C97.4919 11.7607 97.4508 11.7721 97.4053 11.7812C97.0589 11.8496 96.708 11.9271 96.3525 12.0137C95.9971 12.1048 95.6279 12.2165 95.2451 12.3486C95.236 12.3486 95.2292 12.3486 95.2246 12.3486C95.2201 12.3532 95.2155 12.3555 95.2109 12.3555H95.1631C95.1403 12.3555 95.1198 12.3464 95.1016 12.3281C95.0879 12.3145 95.0811 12.3008 95.0811 12.2871C95.0173 12.0866 94.9443 11.8337 94.8623 11.5283C94.7803 11.2184 94.6914 10.8743 94.5957 10.4961C94.5046 10.1133 94.4089 9.7054 94.3086 9.27246C94.2083 8.83952 94.1058 8.39974 94.001 7.95312C93.8962 7.50651 93.7913 7.06445 93.6865 6.62695C93.5863 6.1849 93.4883 5.76562 93.3926 5.36914C93.3607 5.29622 93.3424 5.23698 93.3379 5.19141C93.3333 5.14128 93.3311 5.10026 93.3311 5.06836C93.3311 5.00456 93.3675 4.96354 93.4404 4.94531C93.7959 4.86784 94.165 4.78809 94.5479 4.70605C94.9307 4.61947 95.293 4.51009 95.6348 4.37793C95.6484 4.37337 95.6689 4.37109 95.6963 4.37109C95.7555 4.37109 95.7874 4.39388 95.792 4.43945L96.5576 9.16992L97.6309 5.04102ZM108.91 4.37109C109.343 4.37109 109.735 4.45312 110.086 4.61719C110.441 4.77669 110.744 4.98633 110.995 5.24609C111.25 5.5013 111.446 5.78841 111.583 6.10742C111.72 6.42643 111.788 6.74544 111.788 7.06445C111.788 7.34701 111.701 7.63184 111.528 7.91895C111.355 8.2015 111.111 8.45671 110.797 8.68457C110.487 8.91243 110.113 9.09701 109.676 9.23828C109.238 9.37956 108.757 9.4502 108.233 9.4502C107.96 9.4502 107.673 9.42285 107.372 9.36816C107.39 9.56413 107.447 9.73275 107.543 9.87402C107.639 10.0153 107.759 10.1315 107.905 10.2227C108.051 10.3138 108.215 10.3822 108.397 10.4277C108.584 10.4688 108.776 10.4893 108.972 10.4893C109.19 10.4893 109.4 10.471 109.601 10.4346C109.806 10.3936 110.002 10.3411 110.188 10.2773C110.375 10.2135 110.555 10.1429 110.729 10.0654C110.902 9.98796 111.066 9.91048 111.221 9.83301C111.262 9.82389 111.296 9.81706 111.323 9.8125C111.355 9.80339 111.385 9.79883 111.412 9.79883C111.412 9.79883 111.41 9.83529 111.405 9.9082C111.405 9.98112 111.405 10.0837 111.405 10.2158C111.405 10.348 111.403 10.5075 111.398 10.6943C111.398 10.8812 111.396 11.0885 111.392 11.3164C111.405 11.3392 111.414 11.362 111.419 11.3848C111.424 11.4076 111.426 11.4258 111.426 11.4395C111.426 11.4941 111.376 11.5534 111.275 11.6172C111.175 11.681 111.043 11.7471 110.879 11.8154C110.719 11.8838 110.535 11.9499 110.325 12.0137C110.12 12.0775 109.91 12.1344 109.696 12.1846C109.482 12.2393 109.275 12.2803 109.074 12.3076C108.874 12.3395 108.698 12.3555 108.548 12.3555C108.056 12.3555 107.577 12.2689 107.112 12.0957C106.652 11.9271 106.242 11.6833 105.882 11.3643C105.526 11.0452 105.242 10.6579 105.027 10.2021C104.813 9.74642 104.706 9.23372 104.706 8.66406C104.706 8.06706 104.809 7.50879 105.014 6.98926C105.219 6.46517 105.506 6.00944 105.875 5.62207C106.249 5.2347 106.693 4.92936 107.208 4.70605C107.723 4.48275 108.29 4.37109 108.91 4.37109ZM108.828 6.18945C108.641 6.18945 108.468 6.23047 108.309 6.3125C108.154 6.38997 108.01 6.50391 107.878 6.6543C107.75 6.80013 107.639 6.97786 107.543 7.1875C107.447 7.39258 107.37 7.62044 107.311 7.87109C107.78 7.78906 108.17 7.70247 108.479 7.61133C108.789 7.52018 109.038 7.42904 109.225 7.33789C109.411 7.24219 109.544 7.14876 109.621 7.05762C109.699 6.96191 109.737 6.87077 109.737 6.78418C109.737 6.70215 109.705 6.62467 109.642 6.55176C109.582 6.47884 109.507 6.41504 109.416 6.36035C109.325 6.30566 109.225 6.26465 109.115 6.2373C109.01 6.2054 108.915 6.18945 108.828 6.18945Z" fill="#6C63FF"/>
</svg>
