<?xml version="1.0" encoding="UTF-8"?>
<svg xmlns="http://www.w3.org/2000/svg" xmlns:xlink="http://www.w3.org/1999/xlink" viewBox="0 0 150 150" width="150px" height="150px">
<g id="surface122821136">
<path style=" stroke:none;fill-rule:nonzero;fill:rgb(42.352942%,38.82353%,100%);fill-opacity:1;" d="M 75 150 C 33.578125 150 0 116.421875 0 75 C 0 33.578125 33.578125 0 75 0 C 116.421875 0 150 33.578125 150 75 C 150 116.421875 116.421875 150 75 150 Z M 75 150 "/>
<path style=" stroke:none;fill-rule:nonzero;fill:rgb(100%,100%,100%);fill-opacity:1;" d="M 27 24.601562 C 25.675781 24.601562 24.601562 25.675781 24.601562 27 L 24.601562 123 C 24.601562 124.324219 25.675781 125.398438 27 125.398438 L 123 125.398438 C 124.324219 125.398438 125.398438 124.324219 125.398438 123 L 125.398438 27 C 125.398438 25.675781 124.324219 24.601562 123 24.601562 Z M 29.398438 29.398438 L 120.601562 29.398438 L 120.601562 120.601562 L 29.398438 120.601562 Z M 51 70.199219 L 51 78.46875 L 63 78.46875 L 63 115.800781 L 72.601562 115.800781 L 72.601562 78.46875 L 84.601562 78.46875 L 84.601562 70.199219 Z M 103.058594 70.222656 C 95.585938 70.195312 87.042969 72.457031 87.042969 82.976562 C 87.042969 96.730469 105.570312 96.734375 105.570312 102.9375 C 105.570312 103.527344 105.820312 107.796875 99.28125 107.796875 C 92.742188 107.796875 87.289062 103.6875 87.289062 103.6875 L 87.289062 113.667969 C 87.289062 113.667969 115.804688 122.890625 115.804688 102.09375 C 115.800781 88.59375 97.101562 89.269531 97.101562 82.5625 C 97.101562 79.960938 98.949219 77.53125 104.0625 77.53125 C 109.175781 77.53125 113.703125 80.550781 113.703125 80.550781 L 114.042969 71.65625 C 114.042969 71.65625 108.875 70.246094 103.058594 70.222656 Z M 103.058594 70.222656 "/>
</g>
</svg>
